<svg width="80" height="60" viewBox="0 0 80 60" fill="none" xmlns="http://www.w3.org/2000/svg">
<path d="M4 15.7737C4 14.7131 4.83289 13.8366 5.89184 13.777C30.4641 12.3939 46.3413 11.7138 74.1427 13.7454C75.1857 13.8216 76 14.6918 76 15.7377V50.2598C76 51.5802 74.7422 52.537 73.4638 52.2067C61.5314 49.124 55.4422 49.116 46 50.3838H34C23.8485 49.424 17.3751 50.0128 6.43941 52.3505C5.18763 52.6181 4 51.6689 4 50.3888V15.7737Z" fill="#CF88CC"/>
<path d="M40.4 12.8839V12.1471L39.7928 11.73C35.6253 8.86667 32.077 7.16195 27.9027 6.30539C23.7707 5.45752 19.1119 5.4601 12.7761 5.86098C10.9892 5.97404 9.6 7.46039 9.6 9.24672V44.6454C9.6 46.1883 11.0195 47.2949 12.4859 47.0065C16.702 46.1774 20.0198 45.9946 23.8188 46.6625C27.6622 47.3382 32.0664 48.896 38.4418 51.6678L40.4 52.5191V50.3839V12.8839Z" fill="#CF88CC" stroke="white" stroke-width="2.8"/>
<path d="M39.6 12.8839V12.1471L40.2072 11.73C44.3747 8.86667 47.923 7.16195 52.0973 6.30539C56.2293 5.45752 60.8881 5.4601 67.2239 5.86098C69.0108 5.97404 70.4 7.46039 70.4 9.24672V44.6454C70.4 46.1883 68.9805 47.2949 67.5141 47.0065C63.298 46.1774 59.9802 45.9946 56.1812 46.6625C52.3378 47.3382 47.9336 48.896 41.5582 51.6678L39.6 52.5191V50.3839V12.8839Z" fill="#CF88CC" stroke="white" stroke-width="2.8"/>
</svg>
